<?xml version="1.0" standalone="no"?>
<!DOCTYPE svg PUBLIC "-//W3C//DTD SVG 20010904//EN"
 "http://www.w3.org/TR/2001/REC-SVG-20010904/DTD/svg10.dtd">
<svg version="1.0" xmlns="http://www.w3.org/2000/svg"
 width="216.000000pt" height="233.000000pt" viewBox="0 0 216.000000 233.000000"
 preserveAspectRatio="xMidYMid meet">

<g transform="translate(0.000000,233.000000) scale(0.100000,-0.100000)"
fill="#000000" stroke="none">
<path d="M680 1503 c-97 -33 -180 -119 -213 -217 -21 -62 -22 -176 -2 -242 43
-144 177 -246 325 -247 74 0 147 27 193 70 l27 27 0 -37 0 -37 114 0 c95 0
115 3 120 16 8 20 8 628 0 648 -5 13 -25 16 -120 16 l-114 0 0 -30 c0 -35 -10
-38 -35 -10 -48 53 -202 76 -295 43z m188 -267 c1 -100 -1 -163 -8 -170 -26
-26 0 -72 32 -55 19 10 25 44 8 54 -16 10 -13 325 3 324 21 -1 100 -43 104
-56 3 -7 -8 -15 -24 -18 -15 -4 -34 -8 -40 -11 -15 -4 -17 -50 -3 -59 17 -11
50 5 50 24 0 30 25 44 49 29 11 -7 23 -18 25 -25 6 -15 -53 -60 -85 -65 -18
-2 -24 -9 -24 -28 0 -39 40 -40 60 -1 8 17 27 38 41 47 23 16 26 16 39 -2 8
-10 15 -24 15 -31 0 -18 -84 -83 -108 -83 -23 0 -42 -27 -35 -47 8 -23 53 -15
62 11 5 12 28 38 50 55 l41 33 0 -31 c0 -48 -17 -81 -72 -132 -49 -48 -63 -53
-120 -49 -24 1 -28 -2 -28 -24 0 -14 -4 -26 -8 -26 -10 0 -43 44 -66 88 -16
30 -19 32 -73 32 -54 0 -58 2 -97 45 -23 25 -48 45 -57 45 -8 0 -31 11 -52 25
-36 25 -44 45 -31 79 6 16 20 8 117 -74 9 -8 17 -22 17 -31 0 -22 29 -33 47
-18 22 19 12 53 -17 57 -22 4 -131 80 -145 102 -8 13 13 50 28 50 24 0 95 -60
101 -85 5 -18 13 -25 31 -25 29 0 39 13 30 40 -4 12 -15 20 -29 20 -12 0 -40
16 -62 35 l-39 35 24 19 c30 23 55 12 70 -31 6 -16 16 -28 23 -28 45 1 52 63
8 68 -14 2 -32 5 -40 8 -28 10 20 34 67 34 l43 0 0 -99 c0 -56 -4 -103 -10
-106 -15 -10 -12 -52 5 -59 8 -3 22 -3 30 0 17 7 20 49 5 59 -11 7 -14 198 -3
209 4 4 16 6 28 4 19 -3 20 -11 23 -162z"/>
<path d="M1419 1483 c-2 -10 -3 -163 -1 -340 l3 -323 119 0 120 0 0 340 0 340
-119 0 c-105 0 -119 -2 -122 -17z"/>
<path d="M1268 102 c7 -5 10 -17 6 -28 -5 -16 -4 -16 5 -4 16 22 13 40 -6 40
-13 0 -15 -2 -5 -8z"/>
<path d="M1320 100 c12 -8 13 -13 3 -30 -17 -26 -16 -30 5 -29 11 0 12 2 4 6
-10 4 -10 8 -1 19 13 16 5 44 -13 44 -9 0 -8 -3 2 -10z"/>
<path d="M1368 103 c7 -3 16 -2 19 1 4 3 -2 6 -13 5 -11 0 -14 -3 -6 -6z"/>
<path d="M1422 96 c7 -8 15 -12 17 -11 5 6 -10 25 -20 25 -5 0 -4 -6 3 -14z"/>
<path d="M1469 108 c-6 -20 -1 -68 6 -68 7 0 9 15 7 35 -3 29 -9 44 -13 33z"/>
<path d="M1569 108 c-6 -20 -1 -68 6 -68 7 0 9 15 7 35 -3 29 -9 44 -13 33z"/>
<path d="M1669 108 c-6 -20 -1 -68 6 -68 7 0 9 15 7 35 -3 29 -9 44 -13 33z"/>
<path d="M521 78 c0 -13 3 -17 6 -10 7 17 21 15 26 -5 4 -17 5 -17 6 -1 0 10
-8 22 -19 28 -17 9 -20 8 -19 -12z"/>
<path d="M1612 88 c-17 -17 -15 -25 8 -31 11 -3 20 -1 20 4 0 5 -7 9 -16 9 -8
0 -12 5 -9 10 4 6 11 7 17 4 7 -4 8 -2 4 4 -9 15 -9 15 -24 0z"/>
<path d="M570 71 c0 -11 4 -22 9 -25 4 -3 6 6 3 19 -5 30 -12 33 -12 6z"/>
<path d="M602 70 c0 -14 2 -19 5 -12 2 6 2 18 0 25 -3 6 -5 1 -5 -13z"/>
<path d="M742 70 c0 -14 2 -19 5 -12 2 6 2 18 0 25 -3 6 -5 1 -5 -13z"/>
<path d="M863 83 c9 -2 17 -9 17 -14 0 -5 5 -9 11 -9 8 0 8 5 -1 15 -7 8 -20
14 -29 14 -13 -1 -13 -2 2 -6z"/>
<path d="M1014 75 c-7 -17 3 -35 19 -35 8 0 7 3 -2 9 -8 5 -11 16 -8 25 4 9 4
16 1 16 -2 0 -7 -7 -10 -15z"/>
<path d="M1060 86 c0 -2 7 -6 15 -10 8 -3 15 -1 15 4 0 6 -7 10 -15 10 -8 0
-15 -2 -15 -4z"/>
<path d="M1118 81 c5 -3 12 -15 15 -26 4 -19 5 -19 6 2 0 12 7 23 14 26 6 2
-1 4 -17 4 -15 0 -24 -2 -18 -6z"/>
<path d="M693 66 c1 -11 9 -21 17 -23 10 -3 11 -2 4 4 -6 4 -14 15 -17 23 -5
11 -6 9 -4 -4z"/>
<path d="M940 69 c0 -5 5 -7 10 -4 6 3 10 8 10 11 0 2 -4 4 -10 4 -5 0 -10 -5
-10 -11z"/>
<path d="M1510 55 c-10 -13 -9 -15 11 -14 13 0 18 3 11 6 -6 2 -10 9 -6 14 9
15 -2 10 -16 -6z"/>
<path d="M1070 50 c-9 -6 -10 -10 -3 -10 6 0 15 5 18 10 8 12 4 12 -15 0z"/>
<path d="M1370 50 c-9 -6 -10 -10 -3 -10 6 0 15 5 18 10 8 12 4 12 -15 0z"/>
<path d="M1410 50 c0 -6 7 -10 15 -10 8 0 15 2 15 4 0 2 -7 6 -15 10 -8 3 -15
1 -15 -4z"/>
</g>
</svg>
